<svg xmlns="http://www.w3.org/2000/svg" xml:space="preserve" width="800" height="690" style="shape-rendering:geometricPrecision;text-rendering:geometricPrecision;image-rendering:optimizeQuality;fill-rule:evenodd;clip-rule:evenodd"><defs><style>.fil1{fill:#1a1a1a}.fil0{fill:#333}</style></defs><g id="Capa_x0020_1"><g id="_2368116156736"><path d="m400 403.873 49.238 28.427 49.237 28.428v113.709l-49.237 28.427L400 631.291l-49.237-28.427-49.238-28.427V460.728l49.238-28.428z" class="fil0"/><path d="m400 631.291-49.237-28.427-49.238-28.427V460.728l49.238-28.428L400 403.873z" class="fil1"/></g><g id="_2368116156784"><path d="m600 403.873 49.238 28.427 49.237 28.428v113.709l-49.237 28.427L600 631.291l-49.237-28.427-49.238-28.427V460.728l49.238-28.428z" class="fil0"/><path d="m600 631.291-49.237-28.427-49.238-28.427V460.728l49.238-28.428L600 403.873z" class="fil1"/></g><g id="_2368116159472"><path d="m200 403.873 49.238 28.427 49.237 28.428v113.709l-49.237 28.427L200 631.291l-49.237-28.427-49.238-28.427V460.728l49.238-28.428z" class="fil0"/><path d="m200 631.291-49.237-28.427-49.238-28.427V460.728l49.238-28.428L200 403.873z" class="fil1"/></g><g id="_2368116158656"><path d="m500 576.291 49.238 28.427 49.237 28.427V690h-196.95v-56.855l49.238-28.427z" class="fil0"/><path d="M401.525 690v-56.855l49.238-28.427L500 576.291V690z" class="fil1"/></g><g id="_2368116158272"><path d="m300 576.291 49.238 28.427 49.237 28.427V690h-196.95v-56.855l49.238-28.427z" class="fil0"/><path d="M201.525 690v-56.855l49.238-28.427L300 576.291V690z" class="fil1"/></g><g id="_2368116160816"><path d="m700 576.291 49.238 28.427 49.237 28.427V690h-196.95v-56.855l49.238-28.427z" class="fil0"/><path d="M601.525 690v-56.855l49.238-28.427L700 576.291V690z" class="fil1"/></g><g id="_2368116165136"><path d="m100 576.291 49.238 28.427 49.237 28.427V690H1.525v-56.855l49.238-28.427z" class="fil0"/><path d="M1.525 690v-56.855l49.238-28.427L100 576.291V690z" class="fil1"/></g><g id="_2368116167632"><path d="m800 631.291-49.237-28.427-49.238-28.427V460.728l49.238-28.428L800 403.873z" class="fil0"/><path d="m800 631.291-49.237-28.427-49.238-28.427V460.728l49.238-28.428L800 403.873z" class="fil1"/></g><path id="_2368116168448" d="M0 403.873 49.238 432.3l49.237 28.428v113.709l-49.237 28.427L0 631.291z" class="fil0"/><g id="_2368116171376"><path d="m500 231.291 49.238 28.427 49.237 28.427v113.71l-49.237 28.427L500 458.709l-49.237-28.427-49.238-28.427v-113.71l49.238-28.427z" class="fil0"/><path d="m500 458.709-49.237-28.427-49.238-28.427v-113.71l49.238-28.427L500 231.291z" class="fil1"/></g><g id="_2368116169648"><path d="m300 231.291 49.238 28.427 49.237 28.427v113.71l-49.237 28.427L300 458.709l-49.237-28.427-49.238-28.427v-113.71l49.238-28.427z" class="fil0"/><path d="m300 458.709-49.237-28.427-49.238-28.427v-113.71l49.238-28.427L300 231.291z" class="fil1"/></g><g id="_2368116170176"><path d="m700 231.291 49.238 28.427 49.237 28.427v113.71l-49.237 28.427L700 458.709l-49.237-28.427-49.238-28.427v-113.71l49.238-28.427z" class="fil0"/><path d="m700 458.709-49.237-28.427-49.238-28.427v-113.71l49.238-28.427L700 231.291z" class="fil1"/></g><g id="_2368116171808"><path d="m100 231.291 49.238 28.427 49.237 28.427v113.71l-49.237 28.427L100 458.709l-49.237-28.427-49.238-28.427v-113.71l49.238-28.427z" class="fil0"/><path d="m100 458.709-49.237-28.427-49.238-28.427v-113.71l49.238-28.427L100 231.291z" class="fil1"/></g><g id="_2368116169120"><path d="M400 58.873 449.238 87.3l49.237 28.428v113.709l-49.237 28.427L400 286.291l-49.237-28.427-49.238-28.427V115.728L350.763 87.3z" class="fil0"/><path d="m400 286.291-49.237-28.427-49.238-28.427V115.728L350.763 87.3 400 58.873z" class="fil1"/></g><g id="_2368116173488"><path d="M600 58.873 649.238 87.3l49.237 28.428v113.709l-49.237 28.427L600 286.291l-49.237-28.427-49.238-28.427V115.728L550.763 87.3z" class="fil0"/><path d="m600 286.291-49.237-28.427-49.238-28.427V115.728L550.763 87.3 600 58.873z" class="fil1"/></g><path d="M200 58.873 249.238 87.3l49.237 28.428v113.709l-49.237 28.427L200 286.291l-49.237-28.427-49.238-28.427V115.728L150.763 87.3z" class="fil0"/><path d="m200 286.291-49.237-28.427-49.238-28.427V115.728L150.763 87.3 200 58.873z" class="fil1"/><g id="_2368116172336"><path d="m800 286.291-49.237-28.427-49.238-28.427V115.728L750.763 87.3 800 58.873z" class="fil0"/><path d="m800 286.291-49.237-28.427-49.238-28.427V115.728L750.763 87.3 800 58.873z" class="fil1"/></g><path id="_2368116173200" d="M0 58.873 49.238 87.3l49.237 28.428v113.709l-49.237 28.427L0 286.291z" class="fil0"/><g id="_2368116173008"><path d="M598.475 0v56.855l-49.237 28.427L500 113.709l-49.237-28.427-49.238-28.427V0z" class="fil0"/><path d="m500 113.709-49.237-28.427-49.238-28.427V0H500z" class="fil1"/></g><g id="_2368116177760"><path d="M398.475 0v56.855l-49.237 28.427L300 113.709l-49.237-28.427-49.238-28.427V0z" class="fil0"/><path d="m300 113.709-49.237-28.427-49.238-28.427V0H300z" class="fil1"/></g><g id="_2368116178096"><path d="M798.475 0v56.855l-49.237 28.427L700 113.709l-49.237-28.427-49.238-28.427V0z" class="fil0"/><path d="m700 113.709-49.237-28.427-49.238-28.427V0H700z" class="fil1"/></g><g id="_2368116180352"><path d="M198.475 0v56.855l-49.237 28.427L100 113.709 50.763 85.282 1.525 56.855V0z" class="fil0"/><path d="M100 113.709 50.763 85.282 1.525 56.855V0H100z" class="fil1"/></g></g></svg>