<svg xmlns="http://www.w3.org/2000/svg" id="Layer_1" data-name="Layer 1" viewBox="0 0 530.47 416"><defs><style>.cls-1{fill:#222}.cls-2{fill:#111}.cls-3{fill:#161616}.cls-4{fill:#1e1e1e}</style></defs><path d="m59.88 466.5-28-48.5 28-48.5h56l28 48.5-28 48.5h-56z" class="cls-1"/><path d="m115 371 27.14 47L115 465H60.74l-27.13-47 27.13-47H115m1.74-3H59l-28.86 50L59 468h57.74l28.86-50-28.86-50Z" class="cls-2"/><path d="m59.88 362.5-28-48.5 28-48.5h56l28 48.5-28 48.5h-56z" class="cls-1"/><path d="m115 267 27.14 47L115 361H60.74l-27.13-47 27.13-47H115m1.74-3H59l-28.86 50L59 364h57.74l28.86-50-28.86-50Z" class="cls-2"/><path d="m148.63 414.5-28-48.5 28-48.5h56.01l28 48.5-28 48.5h-56.01z" class="cls-1"/><path d="m203.77 319 27.14 47-27.14 47H149.5l-27.14-47 27.14-47h54.27m1.73-3h-57.73l-28.87 50 28.87 50h57.73l28.87-50-28.87-50Z" class="cls-2"/><path d="m237.12 466.5-28-48.5 28-48.5h56.01l28 48.5-28 48.5h-56.01z" class="cls-1"/><path d="m292.26 371 27.13 47-27.13 47H238l-27.14-47L238 371h54.27m1.73-3h-57.74l-28.87 50 28.87 50H294l28.87-50L294 368Z" class="cls-2"/><path d="m325.31 414.5-28-48.5 28-48.5h56l28 48.5-28 48.5h-56z" class="cls-1"/><path d="m380.45 319 27.13 47-27.13 47h-54.28L299 366l27.13-47h54.28m1.73-3h-57.7l-28.87 50 28.87 50h57.74L411 366l-28.86-50Z" class="cls-2"/><path d="m413.8 466.5-28-48.5 28-48.5h56l28 48.5-28 48.5h-56z" class="cls-1"/><path d="m468.93 371 27.14 47-27.14 47h-54.27l-27.13-47 27.13-47h54.27m1.74-3h-57.74l-28.87 50 28.87 50h57.74l28.86-50-28.86-50Z" class="cls-2"/><path d="m413.8 362.5-28-48.5 28-48.5h56l28 48.5-28 48.5h-56z" class="cls-1"/><path d="m468.93 267 27.14 47-27.14 47h-54.27l-27.13-47 27.13-47h54.27m1.74-3h-57.74l-28.87 50 28.87 50h57.74l28.86-50-28.86-50Z" class="cls-2"/><path d="m59.78 258.5-28-48.5 28-48.5h56l28.01 48.5-28.01 48.5h-56z" class="cls-1"/><path d="m114.92 163 27.13 47-27.13 47H60.65l-27.14-47 27.14-47h54.27m1.73-3H58.92l-28.87 50 28.87 50h57.73l28.87-50-28.87-50Z" class="cls-2"/><path d="m148.54 310.5-28-48.5 28-48.5h56l28 48.5-28 48.5h-56z" class="cls-1"/><path d="m203.68 215 27.13 47-27.13 47H149.4l-27.13-47 27.13-47h54.28m1.73-3h-57.74l-28.87 50 28.87 50h57.74l28.86-50-28.86-50Z" class="cls-2"/><path d="m237.03 258.5-28-48.5 28-48.5h56l28 48.5-28 48.5h-56z" class="cls-1"/><path d="m292.16 163 27.14 47-27.14 47h-54.27l-27.13-47 27.13-47h54.27m1.74-3h-57.74l-28.87 50 28.87 50h57.74l28.86-50-28.86-50Z" class="cls-2"/><path d="m325.21 310.5-28-48.5 28-48.5h56l28.01 48.5-28.01 48.5h-56z" class="cls-1"/><path d="m380.35 215 27.14 47-27.14 47h-54.27l-27.14-47 27.14-47h54.27m1.73-3h-57.73l-28.87 50 28.87 50h57.73L411 262l-28.87-50Z" class="cls-2"/><path d="m413.7 258.5-28-48.5 28-48.5h56l28 48.5-28 48.5h-56z" class="cls-1"/><path d="M468.84 163 496 210l-27.13 47h-54.3l-27.14-47 27.14-47h54.27m1.73-3h-57.74L384 210l28.86 50h57.74l28.87-50-28.87-50Z" class="cls-2"/><path d="m-28.53 206.5-28-48.5 28-48.5h56.01l28 48.5-28 48.5h-56.01z" class="cls-1"/><path d="m26.61 111 27.14 47-27.14 47h-54.27l-27.14-47 27.14-47h54.27m1.73-3h-57.73l-28.87 50 28.87 50h57.73l28.87-50-28.87-50Z" class="cls-2"/><path d="m237.12 362.5-28-48.5 28-48.5h56.01l28 48.5-28 48.5h-56.01z" class="cls-3"/><path d="m292.26 267 27.13 47-27.13 47H238l-27.14-47L238 267h54.27m1.73-3h-57.74l-28.87 50 28.87 50H294l28.87-50L294 264Z" class="cls-2"/><path d="m-28.71 310.5-28-48.5 28-48.5H27.3l28 48.5-28 48.5h-56.01z" class="cls-3"/><path d="m26.43 215 27.14 47-27.14 47h-54.27L-55 262l27.14-47h54.29m1.73-3h-57.73l-28.87 50 28.87 50h57.73L57 262l-28.84-50Z" class="cls-2"/><path d="M502.46 310.5 474.45 262l28.01-48.5h56l28 48.5-28 48.5h-56z" class="cls-3"/><path d="m557.59 215 27.14 47-27.14 47h-54.27l-27.13-47 27.13-47h54.27m1.74-3h-57.74l-28.87 50 28.87 50h57.74l28.86-50-28.86-50Z" class="cls-2"/><path d="m59.96 154.5-28-48.5 28-48.5h56.01l28 48.5-28 48.5H59.96z" class="cls-3"/><path d="m115.1 59 27.13 47-27.13 47H60.83l-27.14-47 27.14-47h54.27m1.73-3H59.1l-28.87 50 28.87 50h57.73l28.87-50-28.87-50Z" class="cls-2"/><path d="M237.21 154.5 209.2 106l28.01-48.5h56l28 48.5-28 48.5h-56z" class="cls-1"/><path d="m292.34 59 27.14 47-27.14 47h-54.27l-27.13-47 27.13-47h54.27m1.73-3h-57.73l-28.87 50 28.87 50h57.73l28.87-50-28.87-50Z" class="cls-2"/><path d="m325.39 206.5-28-48.5 28-48.5h56L409.4 158l-28.01 48.5h-56z" class="cls-1"/><path d="m380.53 111 27.13 47-27.13 47h-54.27l-27.14-47 27.14-47h54.27m1.73-3h-57.73l-28.87 50 28.87 50h57.73l28.87-50-28.87-50Z" class="cls-2"/><path d="m413.88 154.5-28-48.5 28-48.5h56l28 48.5-28 48.5h-56z" class="cls-1"/><path d="m469 59 27.13 47L469 153h-54.25l-27.14-47 27.14-47H469m1.73-3H413l-28.86 50L413 156h57.74l28.87-50-28.86-50Z" class="cls-2"/><path d="M502.64 206.5 474.63 158l28.01-48.5h56l28 48.5-28 48.5h-56z" class="cls-1"/><path d="m557.77 111 27.14 47-27.14 47H503.5l-27.13-47 27.13-47h54.27m1.74-3h-57.74l-28.87 50 28.87 50h57.74l28.86-50-28.86-50Z" class="cls-2"/><path d="m-28.62 102.5-28-48.5 28-48.5h56l28 48.5-28 48.5h-56z" class="cls-1"/><path d="m26.52 7 27.13 47-27.13 47h-54.28l-27.13-47 27.13-47h54.28m1.73-3h-57.74l-28.87 50 28.87 50h57.74l28.86-50L28.25 4Z" class="cls-2"/><path d="M59.87 50.5 31.86 2l28.01-48.5h56l28 48.5-28 48.5h-56z" class="cls-1"/><path d="m115-45 27.14 47L115 49H60.73L33.6 2l27.13-47H115m1.74-3H59L30.13 2 59 52h57.74L145.6 2l-28.86-50Z" class="cls-2"/><path d="m148.62 102.5-28-48.5 28-48.5h56.01l28 48.5-28 48.5h-56.01z" class="cls-1"/><path d="m203.76 7 27.13 47-27.13 47h-54.27l-27.14-47 27.14-47h54.27m1.73-3h-57.73l-28.87 50 28.87 50h57.73l28.87-50-28.87-50Z" class="cls-2"/><path d="m237.11 50.5-28-48.5 28-48.5h56L321.12 2l-28.01 48.5h-56z" class="cls-1"/><path d="m292.25-45 27.13 47-27.13 47H238L210.84 2 238-45h54.27m1.73-3h-57.76L207.38 2l28.86 50H294l28.85-50L294-48Z" class="cls-2"/><path d="m325.3 102.5-28-48.5 28-48.5h56l28 48.5-28 48.5h-56z" class="cls-1"/><path d="m380.43 7 27.14 47-27.14 47h-54.27L299 54l27.16-47h54.27m1.74-3h-57.74l-28.87 50 28.87 50h57.74L411 54 382.17 4Z" class="cls-2"/><path d="M413.79 50.5 385.78 2l28.01-48.5h56l28 48.5-28 48.5h-56z" class="cls-1"/><path d="m468.92-45 27.14 47-27.14 47h-54.27L387.52 2l27.13-47h54.27m1.73-3h-57.73L384.05 2l28.87 50h57.73l28.87-50-28.87-50Z" class="cls-2"/><path d="m502.54 102.5-28-48.5 28-48.5h56l28 48.5-28 48.5h-56z" class="cls-1"/><path d="m557.68 7 27.13 47-27.13 47h-54.27l-27.14-47 27.14-47h54.27m1.73-3h-57.74l-28.86 50 28.86 50h57.74l28.87-50-28.87-50Z" class="cls-2"/><path d="m-28.61 414.5-28-48.5 28-48.5h56l28 48.5-28 48.5h-56z" class="cls-4"/><path d="m26.53 319 27.13 47-27.13 47h-54.27l-27.14-47 27.14-47h54.27m1.73-3h-57.74l-28.86 50 28.86 50h57.74l28.87-50-28.87-50Z" class="cls-2"/><path d="m502.55 414.5-28-48.5 28-48.5h56l28.01 48.5-28.01 48.5h-56z" class="cls-4"/><path d="m557.69 319 27.13 47-27.13 47h-54.27l-27.14-47 27.14-47h54.27m1.73-3h-57.73l-28.87 50 28.87 50h57.73l28.87-50-28.87-50Z" class="cls-2"/><path d="m148.72 206.5-28-48.5 28-48.5h56l28 48.5-28 48.5h-56z" class="cls-4"/><path d="M203.85 111 231 158l-27.14 47h-54.28l-27.13-47 27.13-47h54.27m1.74-3h-57.74L119 158l28.87 50h57.74l28.86-50-28.86-50Z" class="cls-2"/></svg>